<svg xmlns="http://www.w3.org/2000/svg" viewBox="0 0 465.03 499.29"><defs><style>.cls-1{fill:#ef504d;}.cls-10,.cls-12,.cls-13,.cls-18,.cls-2,.cls-20,.cls-21,.cls-24,.cls-25,.cls-27,.cls-6,.cls-8{fill:none;}.cls-10,.cls-12,.cls-13,.cls-16,.cls-18,.cls-2,.cls-20,.cls-21,.cls-24,.cls-25,.cls-27,.cls-6,.cls-8{stroke:#753016;}.cls-10,.cls-12,.cls-13,.cls-16,.cls-2,.cls-20,.cls-21,.cls-24,.cls-25,.cls-27,.cls-6,.cls-8{stroke-linecap:round;stroke-linejoin:round;}.cls-2{stroke-width:4.86px;}.cls-3{fill:#ffe1ad;}.cls-4{fill:#434a54;}.cls-5{fill:#712113;}.cls-6{stroke-width:5.09px;}.cls-22,.cls-7{fill:#753016;}.cls-17,.cls-7{opacity:0.2;}.cls-8{stroke-width:4.85px;}.cls-9{fill:#f1b182;opacity:0.5;}.cls-10{stroke-width:4.86px;}.cls-11{fill:#3bbb9a;}.cls-12,.cls-16{stroke-width:4.96px;}.cls-13{stroke-width:4.03px;}.cls-14{fill:#f5f7fa;}.cls-15{fill:#da4453;}.cls-16{fill:#f4efed;}.cls-17{fill:#110f0f;}.cls-18{stroke-miterlimit:10;stroke-width:5.05px;}.cls-19{fill:#fff;}.cls-20{stroke-width:4.79px;}.cls-21{stroke-width:6px;}.cls-23{fill:#666e78;}.cls-24{stroke-width:4.61px;}.cls-25{stroke-width:3.79px;}.cls-26{fill:#e6e9ed;}.cls-27{stroke-width:3.66px;}</style></defs><g id="Layer_2" data-name="Layer 2"><g id="Layer_1-2" data-name="Layer 1"><path class="cls-1" d="M462.6,266.73a229.87,229.87,0,0,1-78.31,172.91l-1.47,1.29h0c-1.39,1.21-2.8,2.41-4.22,3.57-.59.5-1.2,1-1.8,1.47a229.08,229.08,0,0,1-19.29,14l-.58.38c-1,.66-2.08,1.33-3.13,2l-.06,0-.51.32-2.93,1.78-.23.14-.32.2-.22.13-.83.48c-1,.58-2,1.14-3,1.7q-8.82,5-18.13,9.23l-1.8.82-1.51.66-3.15,1.35q-4.72,2-9.55,3.74t-9.67,3.28q-10.5,3.33-21.4,5.65c-1.65.34-3.31.67-5,1-1.22.24-2.44.46-3.66.67h-.07c-2.92.5-5.84.95-8.8,1.33l-.91.12c-.44.05-.88.12-1.32.15,0,0,0,0,0,0a.71.71,0,0,1-.29.05c-1.62.2-3.26.39-4.9.55l-.45,0q-8.13.78-16.43,1-3.07.09-6.18.09l-2.72,0a232.59,232.59,0,0,1-24.78-1.6l-1.26-.16-.3,0c-.34-.05-.67-.1-1-.13l-1.79-.24-.55-.08a229.61,229.61,0,0,1-35-7.78l-3.09-1q-3.7-1.19-7.35-2.51l0,0a229.23,229.23,0,0,1-40.23-19.08l-1.28-.76-.17-.12h0l-1.12-.69h0l-.49-.3c-1.32-.83-2.64-1.66-3.94-2.51h0a227.44,227.44,0,0,1-20.16-14.72,1.43,1.43,0,0,1-.24-.19c-.46-.38-.92-.75-1.38-1.16a2.1,2.1,0,0,1-.34-.28c-.57-.47-1.14-.94-1.71-1.43-.12-.09-.23-.19-.34-.29-.81-.68-1.62-1.38-2.42-2.09A230.09,230.09,0,0,1,117,67.72Q123.3,64,129.84,60.8c.81-.42,1.63-.82,2.45-1.22l.75-.37.18-.09c.43-.2.85-.4,1.26-.61l.13,0q9.13-4.3,18.71-7.82l.66-.24h0q7.11-2.59,14.45-4.72h0l.72-.2h0l.55-.15h.07a228.6,228.6,0,0,1,45.75-8.06q8.4-.63,17-.63h1.33A230.92,230.92,0,0,1,275,40.56h0q7.95,1.48,15.68,3.5l2.91.77,1.69.47c2.92.82,5.81,1.71,8.68,2.65q1.17.38,2.34.78h0l1.6.55.44.16q4.59,1.59,9.07,3.37l1.7.68,1,.44c.35.13.69.28,1,.43.83.35,1.66.7,2.49,1.07h0a3.29,3.29,0,0,1,.39.17A230.1,230.1,0,0,1,462.6,266.73Z"/><path class="cls-2" d="M462.6,266.73a229.87,229.87,0,0,1-78.31,172.91l-1.47,1.29h0c-1.39,1.21-2.8,2.41-4.22,3.57-.59.5-1.2,1-1.8,1.47a229.08,229.08,0,0,1-19.29,14l-.58.38c-1,.66-2.08,1.33-3.13,2l-.06,0-.51.32-2.93,1.78-.23.14-.32.2-.22.13-.83.48c-1,.58-2,1.14-3,1.7q-8.82,5-18.13,9.23l-1.8.82-1.51.66-3.15,1.35q-4.72,2-9.55,3.74t-9.67,3.28q-10.5,3.33-21.4,5.65c-1.65.34-3.31.67-5,1-1.22.24-2.44.46-3.66.67h-.07c-2.92.5-5.84.95-8.8,1.33l-.91.12c-.44.05-.88.12-1.32.15,0,0,0,0,0,0a.71.71,0,0,1-.29.05c-1.62.2-3.26.39-4.9.55l-.45,0q-8.13.78-16.43,1-3.07.09-6.18.09l-2.72,0a232.59,232.59,0,0,1-24.78-1.6l-1.26-.16-.3,0c-.34-.05-.67-.1-1-.13l-1.79-.24-.55-.08a229.61,229.61,0,0,1-35-7.78l-3.09-1q-3.7-1.19-7.35-2.51l0,0a229.23,229.23,0,0,1-40.23-19.08l-1.28-.76-.17-.12h0l-1.12-.69h0l-.49-.3c-1.32-.83-2.64-1.66-3.94-2.51h0a227.44,227.44,0,0,1-20.16-14.72,1.43,1.43,0,0,1-.24-.19c-.46-.38-.92-.75-1.38-1.16a2.1,2.1,0,0,1-.34-.28c-.57-.47-1.14-.94-1.71-1.43-.12-.09-.23-.19-.34-.29-.81-.68-1.62-1.38-2.42-2.09A230.09,230.09,0,0,1,117,67.72Q123.3,64,129.84,60.8c.81-.42,1.63-.82,2.45-1.22l.75-.37.18-.09c.43-.2.85-.4,1.26-.61l.13,0q9.13-4.3,18.71-7.82l.66-.24h0q7.11-2.59,14.45-4.72h0l.72-.2h0l.55-.15h.07a228.6,228.6,0,0,1,45.75-8.06q8.4-.63,17-.63h1.33A230.92,230.92,0,0,1,275,40.56h0q7.95,1.48,15.68,3.5l2.91.77,1.69.47c2.92.82,5.81,1.71,8.68,2.65q1.17.38,2.34.78h0l1.6.55.44.16q4.59,1.59,9.07,3.37l1.7.68,1,.44c.35.13.69.28,1,.43.83.35,1.66.7,2.49,1.07h0a3.29,3.29,0,0,1,.39.17A230.1,230.1,0,0,1,462.6,266.73Z"/><path class="cls-3" d="M321.43,164.86l-.15-3s0,67.2,0,67.95A91.62,91.62,0,0,1,261,313.57v0a92.17,92.17,0,0,1-31.62,5.56,88.86,88.86,0,0,1-31.64-5.83c-32.61-12.37-56.56-43.06-59.89-77.53-.51-5.08-.54-3.73-1.18-68.67l.07-1.57c0-51.41,6.94-121.72,92.66-123.53C314.48,40.22,321.43,113.44,321.43,164.86Z"/><path class="cls-3" d="M336,201.65v31a5.11,5.11,0,0,1-5.11,5.12h-4.3a5.11,5.11,0,0,1-4.48-2.69,4.89,4.89,0,0,1-.14-1.15v-31a5.11,5.11,0,0,1,5.11-5.11h4.3a5.13,5.13,0,0,1,4.47,2.63A5,5,0,0,1,336,201.65Z"/><path class="cls-3" d="M189.3,184.29a9.63,9.63,0,1,0,9.6,9.63A9.63,9.63,0,0,0,189.3,184.29Zm16.4-37.11H163.47a5.13,5.13,0,0,0-5.12,5.11V173.4a5.12,5.12,0,0,0,5.12,5.11H205.7a5.1,5.1,0,0,0,5.09-5.11V152.29A5.1,5.1,0,0,0,205.7,147.18Zm62.59,37.11a9.63,9.63,0,1,0,9.62,9.63A9.63,9.63,0,0,0,268.29,184.29Zm26.27-37.11H252.34a4.41,4.41,0,0,0-.52,0,2.7,2.7,0,0,0-.41.06l-.2,0a4.33,4.33,0,0,0-1.11.4l-.25.13a3.7,3.7,0,0,0-.62.41l-.27.22-.26.25a2,2,0,0,0-.24.26l-.19.24a3.58,3.58,0,0,0-.34.52,4,4,0,0,0-.24.46l-.1.24c-.05.12-.09.25-.13.38a.14.14,0,0,0,0,.06,1.14,1.14,0,0,0-.06.25.19.19,0,0,0,0,.07l0,.16a2.9,2.9,0,0,0-.06.41,4.41,4.41,0,0,0,0,.52V173.4a5.1,5.1,0,0,0,5.1,5.11h42.22a5.12,5.12,0,0,0,5.12-5.11V152.29A5.13,5.13,0,0,0,294.56,147.18Z"/><path class="cls-4" d="M299.67,152.29v21.1a5.12,5.12,0,0,1-5.11,5.12H252.34a5.11,5.11,0,0,1-5.11-5.12v-21.1a5.11,5.11,0,0,1,5.11-5.12h42.22A5.12,5.12,0,0,1,299.67,152.29Z"/><path class="cls-5" d="M268.29,184.29a9.63,9.63,0,1,1-9.64,9.63A9.62,9.62,0,0,1,268.29,184.29Z"/><path class="cls-4" d="M210.79,152.29v21.1a5.11,5.11,0,0,1-5.1,5.12H163.47a5.13,5.13,0,0,1-5.12-5.12v-21.1a5.13,5.13,0,0,1,5.12-5.12h42.22A5.11,5.11,0,0,1,210.79,152.29Z"/><path class="cls-6" d="M336.48,202.92v31a5.12,5.12,0,0,1-5.12,5.11h-4.45a5.11,5.11,0,0,1-4.82-4,4.89,4.89,0,0,1-.14-1.15v-31a5.11,5.11,0,0,1,5.11-5.11h4.3a5.13,5.13,0,0,1,5.12,5.11Z"/><path class="cls-5" d="M189.3,184.29a9.63,9.63,0,1,1-9.63,9.63A9.62,9.62,0,0,1,189.3,184.29Z"/><path class="cls-3" d="M136.1,201.65v31a5.12,5.12,0,0,1-5.12,5.12h-4.31a5.1,5.1,0,0,1-5.1-5.12v-31a5.08,5.08,0,0,1,5.1-5.09H131A5.1,5.1,0,0,1,136.1,201.65Z"/><path class="cls-6" d="M136.1,201.65v31a5.12,5.12,0,0,1-5.12,5.12h-4.31a5.1,5.1,0,0,1-5.1-5.12v-31a5.08,5.08,0,0,1,5.1-5.09H131A5.1,5.1,0,0,1,136.1,201.65Z"/><path class="cls-6" d="M210.79,152.29v21.1a5.11,5.11,0,0,1-5.1,5.12H163.47a5.13,5.13,0,0,1-5.12-5.12v-21.1a5.13,5.13,0,0,1,5.12-5.12h42.22A5.11,5.11,0,0,1,210.79,152.29Z"/><path class="cls-6" d="M299.67,152.29v21.1a5.12,5.12,0,0,1-5.11,5.12H252.34a5.11,5.11,0,0,1-5.11-5.12v-21.1a5.11,5.11,0,0,1,5.11-5.12h42.22A5.12,5.12,0,0,1,299.67,152.29Z"/><path class="cls-7" d="M321.3,227.55c-.91,38.53-25.09,74.09-59.64,86.7v0A92.17,92.17,0,0,1,230,319.83,88.86,88.86,0,0,1,198.4,314c-32.61-12.37-58.21-44.4-61.54-78.87a64.18,64.18,0,0,1,2.71-5.89S219.69,380.76,321.3,227.55Z"/><path class="cls-8" d="M261,313.57a91.62,91.62,0,0,0,60.29-83.78c0-.75,0-67.95,0-67.95l.15,3c0-51.42-6.34-122.24-91.45-122.24-88.13,0-93.26,71.52-93.26,122.93l-.07,1.57c.64,64.94.67,63.59,1.18,68.67,3.33,34.47,27.28,65.16,59.89,77.53a88.86,88.86,0,0,0,31.64,5.83A92.17,92.17,0,0,0,261,313.59Z"/><path class="cls-3" d="M263.46,313.65l.63,131.72c-26.59,27.16-61-8.19-61-8.19l-3.86-123.56C231.18,327.77,263.46,313.65,263.46,313.65Z"/><path class="cls-9" d="M199.82,315.7l.21,8.94s27.67,17.67,63.86.64l-.64-10S234.94,327.19,199.82,315.7Z"/><path class="cls-10" d="M199.24,313.62,202.64,439s34.86,29.89,61.45,2.73l-.63-128.08S231.18,327.77,199.24,313.62Z"/><path class="cls-11" d="M355.3,360.76l-2.08,101.88-2.93,1.78-.23.14-.32.2-.22.13-.83.48c-1,.58-2,1.14-3,1.7q-8.82,5-18.13,9.23l-1.8.82-1.51.66-3.15,1.35q-4.72,2-9.55,3.74t-9.67,3.28q-10.5,3.33-21.4,5.65c-1.65.34-3.31.67-5,1-1.22.24-2.44.46-3.66.67h-.07c-2.92.5-5.84.95-8.8,1.33l-.91.12c-.44.05-.88.12-1.32.15,0,0,0,0,0,0a.71.71,0,0,1-.29.05c-1.62.2-3.26.39-4.9.55l-.45,0q-8.13.78-16.43,1-3.07.09-6.18.09l-2.72,0a232.59,232.59,0,0,1-24.78-1.6l-1.26-.16-.3,0c-.34-.05-.67-.1-1-.13l-1.79-.24-.55-.08a229.61,229.61,0,0,1-35-7.78l-3.09-1q-3.7-1.19-7.35-2.51l0,0a229.23,229.23,0,0,1-40.23-19.08l-1.28-.76-.17-.12h0l-1.12-.69h0l-2-100.51,46.79-3.53,8.72-.67,35.16-2.64v0l.19.56,12.86,40.23v0l2.46,7.68,0,.11,15.57,48.71.6,1.88.62,1.93.5-1.67.54-1.84,29.44-99,.48,0L301,356.71l9,.67Z"/><path class="cls-12" d="M355.3,360.76l-2.08,101.88-2.93,1.78-.23.14-.32.2-.22.13-.83.48c-1,.58-2,1.14-3,1.7q-8.82,5-18.13,9.23l-1.8.82-1.51.66-3.15,1.35q-4.72,2-9.55,3.74t-9.67,3.28q-10.5,3.33-21.4,5.65c-1.65.34-3.31.67-5,1-1.22.24-2.44.46-3.66.67h-.07c-2.92.5-5.84.95-8.8,1.33l-.91.12c-.44.05-.88.12-1.32.15,0,0,0,0,0,0a.71.71,0,0,1-.29.05c-1.62.2-3.26.39-4.9.55l-.45,0q-8.13.78-16.43,1-3.07.09-6.18.09l-2.72,0a232.59,232.59,0,0,1-24.78-1.6l-1.26-.16-.3,0c-.34-.05-.67-.1-1-.13l-1.79-.24-.55-.08a229.61,229.61,0,0,1-35-7.78l-3.09-1q-3.7-1.19-7.35-2.51l0,0a229.23,229.23,0,0,1-40.23-19.08l-1.28-.76-.17-.12h0l-1.12-.69h0l-2-100.51,46.79-3.53,8.72-.67,35.16-2.64v0l.19.56,12.86,40.23v0l2.46,7.68,0,.11,15.57,48.71.6,1.88.62,1.93.5-1.67.54-1.84,29.44-99,.48,0L301,356.71l9,.67Z"/><path class="cls-3" d="M111.75,462.6l-.49-.3c-1.32-.83-2.64-1.66-3.94-2.51h0a227.44,227.44,0,0,1-20.16-14.72,1.43,1.43,0,0,1-.24-.19c-.46-.38-.92-.75-1.38-1.16a2.1,2.1,0,0,1-.34-.28c-.57-.47-1.14-.94-1.71-1.43,2.76-27,5-48.83,6-57.58.07-.66.14-1.24.2-1.75s.07-.66.1-.95a29.44,29.44,0,0,1,.59-3.39q.28-1.2.63-2.28c.24-.72.5-1.42.78-2.06.19-.44.39-.86.59-1.25s.42-.79.64-1.16c.33-.56.68-1.08,1-1.58l.37-.48c.25-.32.5-.63.76-.91a17.07,17.07,0,0,1,1.54-1.53,20.85,20.85,0,0,1,13-5Z"/><path class="cls-12" d="M111.75,462.6l-.49-.3c-1.32-.83-2.64-1.66-3.94-2.51h0a227.44,227.44,0,0,1-20.16-14.72,1.43,1.43,0,0,1-.24-.19c-.46-.38-.92-.75-1.38-1.16a2.1,2.1,0,0,1-.34-.28c-.57-.47-1.14-.94-1.71-1.43-.12-.09-.23-.19-.34-.29,2.94-26.88,5.31-48.58,6.3-57.29.07-.66.14-1.24.2-1.75s.07-.66.11-.95a31.83,31.83,0,0,1,.58-3.39q.28-1.2.63-2.28c.24-.72.5-1.42.78-2.06.19-.44.39-.86.59-1.25s.42-.79.64-1.16c.33-.56.68-1.08,1-1.58l.37-.48c.25-.32.5-.63.76-.91a17.07,17.07,0,0,1,1.54-1.53,20.85,20.85,0,0,1,13-5Z"/><path class="cls-3" d="M382.81,440.93c-1.39,1.21-2.8,2.41-4.22,3.57-.59.5-1.2,1-1.8,1.47a229.08,229.08,0,0,1-19.29,14l-.58.38c-1,.66-2.08,1.33-3.13,2l2.06-101.23h.36a21.65,21.65,0,0,1,9,2.42c4.63,2.46,9.49,7.37,10.65,17.23,0,.31.08.67.13,1.08s.06.55.1.85a1,1,0,0,0,0,.17c0,.34.08.73.13,1.14s.06.55.1.85.07.59.11.92c.07.64.15,1.31.23,2,0,.33.08.66.12,1,.21,1.75.44,3.71.69,5.9.1.89.21,1.81.33,2.78,0,.27.06.56.09.84.09.77.19,1.57.28,2.39l.18,1.53c.06.54.13,1.09.19,1.65l.18,1.53c.05.41.09.82.14,1.24.59,5,1.23,10.59,1.93,16.59.11,1,.22,1.91.33,2.88.06.47.12,1,.17,1.45.14,1.17.28,2.37.42,3.58q.48,4.19,1,8.57c0,.19.05.4.07.61S382.79,440.72,382.81,440.93Z"/><path class="cls-12" d="M382.82,440.93h0c-1.39,1.21-2.8,2.41-4.22,3.57-.59.5-1.2,1-1.8,1.47a229.08,229.08,0,0,1-19.29,14l-.58.38c-1,.66-2.08,1.33-3.13,2l2.06-101.23h.36a21.65,21.65,0,0,1,9,2.42c4.63,2.46,9.49,7.37,10.65,17.23,0,.31.08.67.13,1.08s.06.55.1.85a1,1,0,0,0,0,.17c0,.34.08.73.13,1.14s.06.55.1.85.07.59.11.92c.07.64.15,1.31.23,2,0,.33.08.66.12,1,.21,1.75.44,3.71.69,5.9.1.89.21,1.81.33,2.78,0,.27.06.56.09.84.09.77.19,1.57.28,2.39l.18,1.53c.06.54.13,1.09.19,1.65l.18,1.53c.05.41.09.82.14,1.24.59,5,1.23,10.59,1.93,16.59.11,1,.22,1.91.33,2.88.06.47.12,1,.17,1.45.14,1.17.28,2.37.42,3.58q.48,4.19,1,8.57c0,.19.05.4.07.61S382.8,440.72,382.82,440.93Z"/><path class="cls-7" d="M246,223.89a17.33,17.33,0,0,1-1.74,7.62,17,17,0,0,1-30.94-.53,17.48,17.48,0,0,1-1.49-7.09h1c.07.18.15.35.22.52A17,17,0,0,0,244,225c.17-.35.33-.7.47-1.06Z"/><path class="cls-13" d="M269.52,250.2a50.89,50.89,0,0,1-7.76,18c-5.56,8-14.79,15.58-29.82,15.58s-25.41-7.35-32-15a57.59,57.59,0,0,1-8.41-13l-.39-.85a33.71,33.71,0,0,1-1.27-3.16A1.5,1.5,0,0,1,190,251c3.57-7,57.55-12.21,78.34-1.4C268.77,249.77,269.15,250,269.52,250.2Z"/><path class="cls-14" d="M268.37,249.57l-.86,7.14-76-1h-.15l-.24-.85L190,251C193.6,243.94,247.58,238.76,268.37,249.57Z"/><path class="cls-13" d="M268.37,249.57l-.86,7.14-76-1h-.15l-.24-.85L190,251C193.6,243.94,247.58,238.76,268.37,249.57Z"/><path class="cls-15" d="M261.75,267.74v.45c-5.56,8-14.79,15.58-29.82,15.58s-25.41-7.35-32-15l0-1S225.17,254.21,261.75,267.74Z"/><path class="cls-13" d="M261.76,268.19c-5.56,8-14.79,15.58-29.82,15.58s-25.41-7.35-32-15l0-1s25.31-13.53,61.89,0Z"/><path class="cls-16" d="M213.27,396s14,6.34,37.13,0l-18.11,56.6Z"/><path class="cls-11" d="M402.6,421.68a229.84,229.84,0,0,1-18.31,18l-1.47,1.29h0c-1.39,1.21-2.8,2.41-4.22,3.57-.59.5-1.2,1-1.8,1.47a229.08,229.08,0,0,1-19.29,14l-.58.38c-1,.66-2.08,1.33-3.13,2l-.06,0,2.12-101.26h.36a26,26,0,0,1,9,2.42,27,27,0,0,1,12.47,12.16C383,385.75,394.56,407,402.6,421.68Z"/><path class="cls-12" d="M402.6,421.68a229.84,229.84,0,0,1-18.31,18l-1.47,1.29h0c-1.39,1.21-2.8,2.41-4.22,3.57-.59.5-1.2,1-1.8,1.47a229.08,229.08,0,0,1-19.29,14l-.58.38c-1,.66-2.08,1.33-3.13,2l-.06,0,2.12-101.26h.36a26,26,0,0,1,9,2.42,27,27,0,0,1,12.47,12.16C383,385.75,394.56,407,402.6,421.68Z"/><path class="cls-11" d="M111.26,462.3c-1.32-.83-2.64-1.66-3.94-2.51h0a227.44,227.44,0,0,1-20.16-14.72,1.43,1.43,0,0,1-.24-.19c-.46-.38-.92-.75-1.38-1.16a2.1,2.1,0,0,1-.34-.28c-.57-.47-1.14-.94-1.71-1.43-.12-.09-.23-.19-.34-.29-.81-.68-1.62-1.38-2.42-2.09A230.65,230.65,0,0,1,63,422.35c8-14.63,19.16-35,24.36-44.89a27.43,27.43,0,0,1,9.28-10.37,25.49,25.49,0,0,1,12.49-4.22Z"/><path class="cls-12" d="M111.26,462.3c-1.32-.83-2.64-1.66-3.94-2.51h0a227.44,227.44,0,0,1-20.16-14.72,1.43,1.43,0,0,1-.24-.19c-.46-.38-.92-.75-1.38-1.16a2.1,2.1,0,0,1-.34-.28c-.57-.47-1.14-.94-1.71-1.43-.12-.09-.23-.19-.34-.29-.81-.68-1.62-1.38-2.42-2.09A230.65,230.65,0,0,1,63,422.35c8-14.63,19.16-35,24.36-44.89a27.43,27.43,0,0,1,9.28-10.37,25.49,25.49,0,0,1,12.49-4.22Z"/><path class="cls-17" d="M317.51,78.7c-.08,1.6-.24,3.23-.49,4.91l-.15,1c-.26,1.6-.59,3.23-1,4.9-.09.37-.19.75-.28,1.12l-.27,1L315,92.89c-.11.38-.23.76-.35,1.15-.18.58-.37,1.16-.57,1.75-.26.78-.54,1.56-.83,2.36l-.22.6c-.3.8-.62,1.6-.95,2.42-.25.61-.51,1.22-.78,1.84-.54,1.23-1.11,2.49-1.72,3.75-.3.64-.62,1.27-.94,1.92L308,110c-.45.86-.92,1.73-1.4,2.61-37.92,69-138.77,27.43-160.15,5.65-6.63-6.76-14.53-17.57-15.47-31.5q-.1-1.56-.09-3.18v-.4c0-.16,0-.31,0-.47s0-.28,0-.42,0-.15,0-.23,0-.15,0-.22,0-.24,0-.36,0-.16,0-.23v-.28c0-.14,0-.29,0-.43l0-.34c0-.06,0-.13,0-.2s0-.24,0-.36.05-.5.08-.76,0-.24,0-.36,0-.25.05-.38a1,1,0,0,0,0-.18,2.51,2.51,0,0,0,0-.27q.28-1.8.72-3.66l.09-.37c0-.13.06-.25.1-.37s.05-.22.08-.33c.14-.54.29-1.08.46-1.62l.09-.32.12-.38c0-.13.08-.25.13-.38l.12-.38c.48-1.41,1-2.84,1.66-4.29.05-.13.11-.26.17-.39l.25-.57c.06-.12.12-.24.17-.36l.23-.48.18-.37c.06-.14.13-.28.2-.42l.13-.25c0-.11.11-.23.17-.34l.21-.41.21-.4c.5-.94,1-1.9,1.6-2.85.14,1.41.31,3,.53,4.62,2.83,21,13.22,59,51.38,65.94,51.24,9.32,103.23-37.42,116.4-76.19.47-1.37.89-2.74,1.25-4.09l.28.33h0l.27.33c.1.12.19.23.28.36a4,4,0,0,1,.26.32h0l.27.35c.17.23.35.46.52.7l.24.33.26.37.18.26.14.21.17.25.24.37.21.32a.56.56,0,0,1,0,.08l.2.32c.09.13.16.26.24.39s.1.16.14.24l.15.24.15.27c.15.25.29.51.43.76l.19.35c.08.16.17.31.24.47l.18.35.2.39.19.4c.07.13.13.26.19.4l.18.4.18.41.19.43c.05.13.1.26.16.38.11.28.21.56.32.83.16.42.31.83.46,1.25.05.15.1.3.14.45s.19.57.28.86.09.29.13.43.11.36.16.55l.09.33c0,.14.07.27.1.4s.09.33.13.49.07.3.11.45.08.39.13.58,0,.22.07.33l.09.46a.5.5,0,0,1,0,.12c.05.26.11.53.15.8s.06.32.08.48.05.29.07.43,0,0,0,.06l.06.44c0,.16.05.32.07.48s0,.29,0,.43l.06.54c0,.13,0,.26,0,.39s0,.33.05.5,0,.16,0,.24,0,.17,0,.25,0,.39,0,.59l0,.46c0,.09,0,.18,0,.28s0,.23,0,.35,0,.24,0,.37,0,.26,0,.39V75c0,.15,0,.3,0,.45C317.6,76.48,317.58,77.58,317.51,78.7Z"/><path class="cls-4" d="M165,108.89c-15.59,11.81-27.34,92.47-30,89.68a1.07,1.07,0,0,1-.17-.31c-6.36-19.1-9.12-36.09-9.51-51,1.2-45.92,24.92-70.44,29.78-75,.56-.53.87-.79.87-.79a15.87,15.87,0,0,0-.7,3c-.64,4.61.61,10.4,2.48,16.16C159.94,97.44,163,104.21,165,108.89Z"/><path class="cls-4" d="M333.33,147.24c-.39,14.93-3.16,31.92-9.52,51-2.26,6.78-14-78.53-29.94-90.6,3.5-8.62,10.9-23.13,9.5-33.2a15.14,15.14,0,0,0-.69-3s-13.21.76.89-.27C310.21,70.71,332.13,101.32,333.33,147.24Z"/><path class="cls-17" d="M165,108.89c-15.59,11.81-27.34,92.47-30,89.68-6-53.15,17.6-98.74,22.75-107.95C159.94,97.44,163,104.21,165,108.89Z"/><path class="cls-17" d="M293.43,108c15.58,11.81,27.34,92.47,30,89.68,6-53.14-17.59-98.74-22.74-107.95C298.43,96.52,295.33,103.29,293.43,108Z"/><path class="cls-18" d="M165.59,107.75a7,7,0,0,0-2.6,1.3c-15.94,12.07-25.91,96-28.18,89.21-6.36-19.1-9.12-36.09-9.51-51C123.83,91.07,156,64.11,156,64.11a21.88,21.88,0,0,0-.87,8.14c0,.72.1,1.46.17,2.21C156.76,89,165.59,107.75,165.59,107.75Z"/><path class="cls-18" d="M333.33,147.24c-.39,14.93-3.16,31.92-9.52,51-2.26,6.78-12.23-77.14-28.17-89.21a7,7,0,0,0-2.61-1.3s8.83-18.8,10.34-33.29q.12-1.12.18-2.22a22.06,22.06,0,0,0-.87-8.13S334.79,91.07,333.33,147.24Z"/><path class="cls-19" d="M316.24,29.59c-35.41,21.8-194.85,14.64-194.85,14.64s.13-.29.19-.44.19-.42.29-.62l.18-.41c.09-.18.17-.36.25-.54s.14-.27.2-.4l.23-.47c0-.09.09-.18.14-.27s.12-.26.19-.39.15-.29.23-.44.16-.3.23-.45c.56-1,1.15-2.1,1.78-3.16,5.5-9.29,14.09-19.24,26.78-29.75,0,0,2.66,28.64,16.55,28.64,31.77,0,40.72-34,85.47-33.12,23,.47,46.25,8,59.29,23.45l.31.36h0l.31.37.31.39.29.37h0l.29.38.58.77.27.38c.1.13.2.27.29.41Z"/><path class="cls-4" d="M324,58.81q-.15,2.65-.55,5.44c-.05.36-.11.73-.17,1.1-.29,1.77-.65,3.58-1.1,5.44-.1.41-.21.82-.31,1.24l-.3,1.12c-.13.46-.26.93-.4,1.39s-.25.85-.39,1.28c-.19.64-.4,1.28-.62,1.94-.29.86-.6,1.74-.93,2.62L319,81c-.34.89-.69,1.78-1.06,2.68-.28.68-.56,1.36-.86,2q-.88,2.06-1.91,4.16c-.34.71-.68,1.41-1,2.13l-.74,1.43c-.49,1-1,1.92-1.55,2.89-42.06,76.52-153.93,30.43-177.64,6.27-7.36-7.49-16.13-19.48-17.17-34.94.51-7.63,3-16,8.29-25,.19-.33.39-.66.59-1,5.53-9,14-18.62,26.19-28.75,0,0,2.66,28.63,16.55,28.63,31.77,0,40.72-34,85.47-33.11C276.35,9,298.74,16,312,30.4c.47.51.94,1,1.39,1.57A44.62,44.62,0,0,1,324,58.81Z"/><path class="cls-17" d="M324,58.81q-.15,2.65-.55,5.44c-.05.36-.11.73-.17,1.1-.29,1.77-.65,3.58-1.1,5.44-.1.41-.21.82-.31,1.24l-.3,1.12c-.13.46-.26.93-.4,1.39s-.25.85-.39,1.28c-.2.64-.4,1.28-.62,1.94-.29.86-.6,1.74-.93,2.62L319,81c-.34.89-.69,1.78-1.06,2.68-.28.68-.56,1.36-.86,2-.6,1.37-1.23,2.76-1.91,4.16-.34.71-.68,1.41-1,2.13l-.74,1.43c-.49,1-1,1.92-1.55,2.89-42.06,76.52-153.93,30.43-177.64,6.27-7.36-7.49-16.13-19.48-17.17-34.94-.08-1.15-.11-2.33-.1-3.52,0-.11,0-.22,0-.33v-.13c0-.17,0-.34,0-.51l0-.47c0-.08,0-.17,0-.26s0-.16,0-.23l0-.41a2.11,2.11,0,0,0,0-.25c0-.11,0-.21,0-.31s0-.32,0-.48l0-.37a1.8,1.8,0,0,0,0-.22c0-.14,0-.27,0-.41s.07-.56.1-.84c0-.13,0-.26,0-.4l.06-.42,0-.2c0-.1,0-.2,0-.3.2-1.33.47-2.69.8-4.06,0-.14.06-.27.1-.41s.06-.28.1-.42l.09-.36c.16-.59.33-1.19.51-1.79,0-.12.07-.24.11-.36s.09-.28.13-.42l.14-.42c0-.14.09-.29.14-.43q.78-2.34,1.83-4.75c.07-.14.13-.29.19-.44s.19-.42.29-.62l.18-.41c.09-.18.17-.36.25-.54s.14-.27.2-.4l.23-.47c0-.09.09-.18.14-.27s.12-.26.19-.39.15-.29.23-.44.16-.3.23-.45c.56-1,1.15-2.1,1.78-3.16.15,1.57.35,3.29.59,5.12,3.14,23.27,14.66,65.45,57,73.15C239.72,125.24,297.39,73.39,312,30.4c.52-1.53,1-3,1.39-4.54l.31.36h0l.31.37.31.39.29.37h0l.29.38.58.77.27.38c.1.13.2.27.29.41l.2.29.16.23.19.28.26.4.23.36.06.09c.08.12.15.24.22.36s.18.28.26.42.11.18.16.27.11.18.16.27l.18.3c.16.28.32.56.47.84l.21.39.27.52c.07.13.14.26.2.39s.15.29.22.44l.21.43.21.45.2.44.2.45.21.49c.05.14.11.28.17.42.13.31.25.61.37.92s.34.92.5,1.39c.06.16.11.32.17.49s.2.63.3,1c.05.16.1.32.14.48s.12.4.18.6.07.25.1.37l.12.44c0,.18.09.37.13.55l.12.5.15.64c0,.12,0,.24.08.37s.07.33.1.5a.69.69,0,0,1,0,.13c.06.3.12.6.17.9l.09.52c0,.17.05.33.08.49a.2.2,0,0,0,0,.07c0,.16,0,.32.07.48s0,.35.07.53l.06.48c0,.2,0,.4.07.6s0,.29,0,.43,0,.37.05.55,0,.18,0,.27l0,.28c0,.22,0,.44,0,.66l0,.5c0,.11,0,.21,0,.31s0,.26,0,.4,0,.26,0,.4,0,.29,0,.43v.18c0,.17,0,.33,0,.5C324.08,56.35,324.05,57.57,324,58.81Z"/><path class="cls-20" d="M324,58.81q-.15,2.65-.55,5.44c-.05.36-.11.73-.17,1.1-.29,1.77-.65,3.58-1.1,5.44-.1.41-.21.82-.31,1.24l-.3,1.12c-.13.46-.26.93-.4,1.39s-.25.85-.39,1.28c-.19.64-.4,1.28-.62,1.94-.29.86-.6,1.74-.93,2.62L319,81c-.34.89-.69,1.78-1.06,2.68-.28.68-.56,1.36-.86,2q-.88,2.06-1.91,4.16c-.34.71-.68,1.41-1,2.13l-.74,1.43c-.49,1-1,1.92-1.55,2.89-42.06,76.52-153.93,30.43-177.64,6.27-7.36-7.49-16.13-19.48-17.17-34.94-.08-1.15-.11-2.33-.1-3.52,0-.11,0-.22,0-.33v-.13c0-.17,0-.34,0-.51l0-.47c0-.08,0-.17,0-.26s0-.16,0-.23l0-.41a2.11,2.11,0,0,0,0-.25c0-.11,0-.21,0-.31s0-.32,0-.48l0-.37a1.8,1.8,0,0,0,0-.22c0-.14,0-.27,0-.41s.07-.56.1-.84c0-.13,0-.26,0-.4l.06-.42,0-.2c0-.1,0-.2,0-.3.2-1.33.47-2.69.8-4.06,0-.14.06-.27.1-.41s.06-.28.1-.42l.09-.36c.16-.59.33-1.19.51-1.79,0-.12.07-.24.11-.36s.09-.28.13-.42l.14-.42c0-.14.09-.29.14-.43q.78-2.34,1.83-4.75c.07-.14.13-.29.19-.44s.19-.42.29-.62l.18-.41c.09-.18.17-.36.25-.54s.14-.27.2-.4l.23-.47c0-.09.09-.18.14-.27s.12-.26.19-.39.15-.29.23-.44.16-.3.23-.45c.56-1,1.15-2.1,1.78-3.16,5.5-9.29,14.09-19.24,26.78-29.75,0,0,2.66,28.64,16.55,28.64,31.77,0,40.72-34,85.47-33.12,23,.47,46.25,8,59.29,23.45l.31.36h0l.31.37.31.39.29.37h0l.29.38.58.77.27.38c.1.13.2.27.29.41l.2.29.16.23.19.28.26.4.23.36.06.09c.08.12.15.24.22.36s.18.28.26.42.11.18.16.27.11.18.16.27l.18.3c.16.28.32.56.47.84l.21.39.27.52c.07.13.14.26.2.39s.15.29.22.44l.21.43.21.45.2.44.2.45.21.49c.05.14.11.28.17.42.13.31.25.61.37.92s.34.92.5,1.39c.06.16.11.32.17.49s.2.63.3,1c.05.16.1.32.14.48s.12.4.18.6.07.25.1.37l.12.44c0,.18.09.37.13.55l.12.5.15.64c0,.12,0,.24.08.37s.07.33.1.5a.69.69,0,0,1,0,.13c.06.3.12.6.17.9l.09.52c0,.17.05.33.08.49a.2.2,0,0,0,0,.07c0,.16,0,.32.07.48s0,.35.07.53l.06.48c0,.2,0,.4.07.6s0,.29,0,.43,0,.37.05.55,0,.18,0,.27l0,.28c0,.22,0,.44,0,.66l0,.5c0,.11,0,.21,0,.31s0,.26,0,.4,0,.26,0,.4,0,.29,0,.43v.18c0,.17,0,.33,0,.5C324.08,56.35,324.05,57.57,324,58.81Z"/><path class="cls-21" d="M245.44,217.75a16.43,16.43,0,0,1-1.66,7.25,16.13,16.13,0,0,1-29.42-.51,16.64,16.64,0,0,1-1.42-6.74S216,234,229.25,233.83,245.44,217.75,245.44,217.75Z"/><path class="cls-22" d="M336,466.24a1.49,1.49,0,0,1-1.26,1.71,663,663,0,0,1-204.44,0,1.5,1.5,0,0,1-1.27-1.71h0a1.51,1.51,0,0,1,1.73-1.25,660.16,660.16,0,0,0,203.52,0,1.5,1.5,0,0,1,1.72,1.25Z"/><path class="cls-23" d="M165.21,357.89c-.49,11.84-2.15,57.45-1.07,103.05.2,8.69.5,17.37.94,25.83l-3.09-1q-3.7-1.19-7.35-2.51l0,0c-.43-7.33-.82-15.3-1.12-23.72-1.06-30.51-.89-67,3-101,.07-.64.14-1.28.22-1.92l8.62-1.69S165.28,356,165.21,357.89Z"/><path class="cls-24" d="M165.21,357.89c-.49,11.84-2.15,57.45-1.07,103.05.2,8.69.5,17.37.94,25.83l-3.09-1q-3.7-1.19-7.35-2.51l0,0c-.43-7.33-.82-15.3-1.12-23.72-1.06-30.51-.89-67,3-101,.07-.64.14-1.28.22-1.92l8.62-1.69S165.28,356,165.21,357.89Z"/><path class="cls-23" d="M300.73,352.37s5.19,76.13-3.41,117.4l10.32.58s11.17-63.36,1.72-116.83Z"/><path class="cls-25" d="M300.73,352.37s5.19,76.13-3.41,117.4l10.32.58s11.17-63.36,1.72-116.83Z"/><path class="cls-26" d="M325.8,477.12l-1.51.66-3.15,1.35c-4.44-5.58-10.12-8.63-17.1-8.63-11,0-18.76,7.89-23.52,21.3-1.65.34-3.31.67-5,1,5.27-14.48,13.33-25,22.74-28.15a18.59,18.59,0,0,1,6-1,19.26,19.26,0,0,1,4.29.48C315,465.54,320.9,470.17,325.8,477.12Z"/><path class="cls-27" d="M325.8,477.12l-1.51.66-3.15,1.35c-4.44-5.58-10.12-8.63-17.1-8.63-11,0-18.76,7.89-23.52,21.3-1.65.34-3.31.67-5,1,5.27-14.48,13.33-25,22.74-28.15a18.59,18.59,0,0,1,6-1,19.26,19.26,0,0,1,4.29.48C315,465.54,320.9,470.17,325.8,477.12Z"/></g></g></svg>